<?xml version="1.0" encoding="UTF-8"?>
<svg width="296px" height="50px" viewBox="0 0 296 50" version="1.1" xmlns="http://www.w3.org/2000/svg" xmlns:xlink="http://www.w3.org/1999/xlink">
    <title>extension</title>
    <defs>
        <linearGradient x1="0%" y1="49.1384475%" x2="100%" y2="50.8615525%" id="linearGradient-1">
            <stop stop-color="#7117EA" offset="0%"></stop>
            <stop stop-color="#EA6060" offset="100%"></stop>
        </linearGradient>
        <path d="M20.46,43.32 C28.988,43.32 33.876,37.756 33.876,31.984 C33.876,18.724 15.26,22.468 15.26,16.28 C15.26,14.512 17.028,13.316 19.628,13.316 C22.592,13.316 26.128,14.876 28.832,17.528 L33.304,11.444 C30.548,8.272 24.932,5.88 20.252,5.88 C12.764,5.88 7.512,10.664 7.512,16.852 C7.512,29.956 25.972,25.9 25.972,32.036 C25.972,34.376 23.736,35.832 20.46,35.832 C16.144,35.832 13.076,33.648 10.32,30.788 L5.38,36.404 C8.5,40.356 14.844,43.32 20.46,43.32 Z M50.828,43.216 C52.18,43.216 53.636,42.956 54.572,42.488 L54.208,35.988 C53.636,36.196 52.648,36.352 51.92,36.352 C49.788,36.352 47.968,34.844 47.968,32.452 L47.968,24.236 L54.26,24.236 L54.26,17.268 L47.968,17.268 L47.968,10.56 L40.636,10.56 L40.636,17.268 L35.904,17.268 L35.904,24.236 L40.636,24.236 L40.636,32.816 C40.636,39.42 44.848,43.216 50.828,43.216 Z M69.028,43.32 C71.836,43.32 74.54,41.968 75.996,39.784 L75.996,42.8 L83.328,42.8 L83.328,17.268 L75.996,17.268 L75.996,33.128 C74.904,34.896 72.876,35.988 70.9,35.988 C67.884,35.988 65.96,34.012 65.96,30.476 L65.96,17.268 L58.628,17.268 L58.628,31.672 C58.628,38.9 62.58,43.32 69.028,43.32 Z M95.808,42.8 L95.808,26.94 C96.848,25.172 98.876,24.028 100.904,24.028 C103.92,24.028 105.844,26.056 105.844,29.592 L105.844,42.8 L113.176,42.8 L113.176,28.344 C113.176,21.168 109.224,16.748 102.776,16.748 C99.916,16.748 97.212,18.1 95.808,20.284 L95.808,17.268 L88.476,17.268 L88.476,42.8 L95.808,42.8 Z M131.116,43.216 C132.468,43.216 133.924,42.956 134.86,42.488 L134.496,35.988 C133.924,36.196 132.936,36.352 132.208,36.352 C130.076,36.352 128.256,34.844 128.256,32.452 L128.256,24.236 L134.548,24.236 L134.548,17.268 L128.256,17.268 L128.256,10.56 L120.924,10.56 L120.924,17.268 L116.192,17.268 L116.192,24.236 L120.924,24.236 L120.924,32.816 C120.924,39.42 125.136,43.216 131.116,43.216 Z M146.248,42.8 L146.248,27.356 C147.496,24.86 150.148,23.508 151.812,23.508 C152.852,23.508 154.1,23.716 155.088,24.08 L155.504,17.216 C154.724,16.904 153.684,16.748 152.384,16.748 C150.252,16.748 147.496,18.1 146.248,20.284 L146.248,17.268 L138.916,17.268 L138.916,42.8 L146.248,42.8 Z M171.208,43.32 C178.696,43.32 184.468,37.652 184.468,30.06 C184.468,22.468 178.696,16.748 171.208,16.748 C163.668,16.748 157.948,22.468 157.948,30.06 C157.948,37.652 163.668,43.32 171.208,43.32 Z M171.208,36.3 C167.724,36.3 165.124,33.596 165.124,30.06 C165.124,26.42 167.724,23.768 171.208,23.768 C174.64,23.768 177.292,26.42 177.292,30.06 C177.292,33.596 174.64,36.3 171.208,36.3 Z M200.9,43.32 C206.36,43.32 210.988,40.408 212.912,35.988 L206.412,33.076 C205.424,35.104 203.396,36.3 200.9,36.3 C197.26,36.3 194.66,33.596 194.66,30.06 C194.66,26.472 197.26,23.768 200.9,23.768 C203.136,23.768 205.008,24.86 205.944,26.576 L212.132,23.04 C210.104,19.244 205.892,16.748 200.9,16.748 C193.256,16.748 187.484,22.468 187.484,30.06 C187.484,37.652 193.256,43.32 200.9,43.32 Z M223.832,42.8 L223.832,31.36 L233.088,42.8 L242.5,42.8 L231.06,29.592 L241.668,17.268 L232.672,17.268 L223.832,27.824 L223.832,6.4 L216.5,6.4 L216.5,42.8 L223.832,42.8 Z M257.788,43.32 C263.092,43.32 267.356,41.344 269.228,37.964 L263.508,34.48 C262.624,36.04 260.232,37.08 257.944,37.08 C254.46,37.08 252.068,35.26 251.392,31.776 L269.748,31.776 C269.904,30.788 269.956,29.8 269.956,28.916 C269.956,22.104 264.548,16.748 257.632,16.748 C250.196,16.748 244.372,22.468 244.372,29.904 C244.372,37.496 250.3,43.32 257.788,43.32 Z M262.624,27.096 L251.496,27.096 C252.172,24.34 254.2,22.676 257.268,22.676 C259.972,22.676 262.312,24.548 262.624,27.096 Z M286.856,43.216 C288.208,43.216 289.664,42.956 290.6,42.488 L290.236,35.988 C289.664,36.196 288.676,36.352 287.948,36.352 C285.816,36.352 283.996,34.844 283.996,32.452 L283.996,24.236 L290.288,24.236 L290.288,17.268 L283.996,17.268 L283.996,10.56 L276.664,10.56 L276.664,17.268 L271.932,17.268 L271.932,24.236 L276.664,24.236 L276.664,32.816 C276.664,39.42 280.876,43.216 286.856,43.216 Z" id="path-2"></path>
    </defs>
    <g id="extension" stroke="none" stroke-width="1" fill="none" fill-rule="evenodd">
        <g id="Stuntrocket" fill-rule="nonzero">
            <use fill="#E5E7EB" xlink:href="#path-2"></use>
            <use fill="url(#linearGradient-1)" xlink:href="#path-2"></use>
        </g>
    </g>
</svg>